<svg width="27" height="23" viewBox="0 0 27 23" fill="none" xmlns="http://www.w3.org/2000/svg">
<path d="M18.9107 0H17.5607C16.9226 0 16.39 0.524318 16.2634 1.21935C12.2069 3.45564 7.87221 4.943 3.41723 5.62728C3.03754 5.68825 2.71586 5.91992 2.50492 6.25524H1.32366C0.972603 6.25524 0.635929 6.41647 0.387697 6.70345C0.139466 6.99043 1.05059e-05 7.37966 1.05059e-05 7.78552V10.9131C-0.00068379 11.1146 0.0330409 11.3143 0.0992494 11.5006C0.165458 11.687 0.262847 11.8564 0.385828 11.9992C0.508809 12.1419 0.654961 12.2552 0.815898 12.3324C0.976834 12.4097 1.14939 12.4495 1.32366 12.4495H2.50492C2.71586 12.7787 3.03754 13.0165 3.41723 13.0775L3.61762 13.108L5.69538 21.7531C5.85358 22.4116 6.38093 22.8749 6.97156 22.8749H9.89307C10.005 22.8749 10.1123 22.8235 10.1914 22.7321C10.2705 22.6406 10.3149 22.5165 10.3149 22.3872C10.3149 22.2578 10.2705 22.1338 10.1914 22.0423C10.1123 21.9508 10.005 21.8994 9.89307 21.8994H9.75596L7.87333 14.0469C12.3031 15.2967 15.4671 17.0343 16.2582 17.4854C16.321 17.8297 16.484 18.1386 16.7202 18.3605C16.9563 18.5824 17.2511 18.704 17.5554 18.7048H18.9055C19.0793 18.7048 19.2514 18.6652 19.412 18.5883C19.5726 18.5114 19.7185 18.3986 19.8414 18.2565C19.9643 18.1144 20.0618 17.9458 20.1283 17.7601C20.1949 17.5744 20.2291 17.3754 20.2291 17.1745V1.53028C20.2277 1.12653 20.0884 0.739785 19.8414 0.454293C19.5945 0.168801 19.26 0.007702 18.9107 0.00609663V0ZM2.25706 11.4679H1.31838C1.05471 11.4679 0.843768 11.2241 0.843768 10.9192V7.77942C0.843768 7.47459 1.05471 7.23072 1.31838 7.23072H2.25179V11.4618L2.25706 11.4679ZM8.88583 21.8933H6.97156C6.76062 21.8933 6.5655 21.7287 6.50749 21.491L4.53521 13.2604C5.34287 13.4121 6.14654 13.591 6.94519 13.7969L8.89111 21.8994L8.88583 21.8933ZM19.3906 17.1745C19.3906 17.4793 19.1797 17.7232 18.916 17.7232H17.5607C17.297 17.7232 17.0808 17.4793 17.0808 17.1745V5.70654C17.0808 5.57718 17.0364 5.45312 16.9573 5.36165C16.8781 5.27018 16.7708 5.2188 16.659 5.2188C16.5471 5.2188 16.4398 5.27018 16.3606 5.36165C16.2815 5.45312 16.2371 5.57718 16.2371 5.70654V16.388C12.2094 14.2354 7.92548 12.7927 3.52797 12.1081C3.28539 12.0715 3.10082 11.8337 3.10082 11.5594V7.14536C3.10082 6.87101 3.28539 6.63324 3.5227 6.59666C7.92019 5.91192 12.2041 4.46927 16.2318 2.31676V3.61536C16.2318 3.74471 16.2762 3.86877 16.3554 3.96024C16.4345 4.05171 16.5418 4.1031 16.6537 4.1031C16.7656 4.1031 16.8729 4.05171 16.952 3.96024C17.0311 3.86877 17.0756 3.74471 17.0756 3.61536V1.53637C17.0756 1.23154 17.2918 0.975476 17.5607 0.975476H18.9107C19.1744 0.975476 19.3906 1.22544 19.3906 1.53028V17.1745ZM26.5784 8.86464H22.0695C21.9577 8.86464 21.8504 8.91603 21.7712 9.00749C21.6921 9.09896 21.6477 9.22302 21.6477 9.35238C21.6477 9.48173 21.6921 9.60579 21.7712 9.69726C21.8504 9.78873 21.9577 9.84012 22.0695 9.84012H26.5784C26.6903 9.84012 26.7976 9.78873 26.8767 9.69726C26.9558 9.60579 27.0003 9.48173 27.0003 9.35238C27.0003 9.22302 26.9558 9.09896 26.8767 9.00749C26.7976 8.91603 26.6903 8.86464 26.5784 8.86464ZM25.6133 3.94458C25.5692 3.82577 25.4861 3.73207 25.3823 3.68405C25.2785 3.63604 25.1624 3.63764 25.0596 3.68852L24.6061 3.9141C24.5536 3.93803 24.5058 3.97391 24.4655 4.01959C24.4252 4.06528 24.3932 4.11985 24.3715 4.18008C24.3498 4.2403 24.3387 4.30496 24.339 4.37021C24.3392 4.43546 24.3508 4.49999 24.3731 4.55997C24.3953 4.61995 24.4277 4.67416 24.4684 4.71939C24.5091 4.76462 24.5572 4.79996 24.6099 4.8233C24.6626 4.84664 24.7189 4.85752 24.7753 4.85529C24.8317 4.85306 24.8871 4.83777 24.9383 4.81032L25.3918 4.59083C25.4434 4.56562 25.4901 4.52881 25.5292 4.48254C25.5683 4.43627 25.599 4.38147 25.6196 4.32133C25.6403 4.26118 25.6503 4.1969 25.6492 4.13222C25.6481 4.06754 25.6359 4.00376 25.6133 3.94458ZM23.8098 4.8408C23.7657 4.72199 23.6826 4.62828 23.5788 4.58027C23.475 4.53225 23.3589 4.53386 23.2561 4.58474L21.9008 5.25538C21.8483 5.27931 21.8005 5.31519 21.7602 5.36087C21.7199 5.40656 21.6879 5.46113 21.6662 5.52136C21.6445 5.58158 21.6334 5.64624 21.6337 5.71149C21.6339 5.77674 21.6455 5.84127 21.6678 5.90125C21.69 5.96123 21.7224 6.01544 21.7631 6.06067C21.8038 6.1059 21.8519 6.14124 21.9046 6.16458C21.9573 6.18792 22.0136 6.1988 22.07 6.19657C22.1264 6.19434 22.1818 6.17905 22.233 6.1516L23.5883 5.48096C23.6911 5.42998 23.7721 5.33392 23.8137 5.21388C23.8552 5.09384 23.8538 4.95965 23.8098 4.8408ZM25.3918 14.12L24.9383 13.8944C24.8871 13.867 24.8317 13.8517 24.7753 13.8495C24.7189 13.8472 24.6626 13.8581 24.6099 13.8815C24.5572 13.9048 24.5091 13.9401 24.4684 13.9854C24.4277 14.0306 24.3953 14.0848 24.3731 14.1448C24.3508 14.2048 24.3392 14.2693 24.339 14.3345C24.3387 14.3998 24.3498 14.4645 24.3715 14.5247C24.3932 14.5849 24.4252 14.6395 24.4655 14.6852C24.5058 14.7308 24.5536 14.7667 24.6061 14.7907L25.0596 15.0162C25.1624 15.0671 25.2785 15.0687 25.3823 15.0207C25.4861 14.9727 25.5692 14.879 25.6133 14.7602C25.6359 14.701 25.6481 14.6372 25.6492 14.5725C25.6503 14.5079 25.6403 14.4436 25.6196 14.3834C25.599 14.3233 25.5683 14.2685 25.5292 14.2222C25.4901 14.1759 25.4434 14.1391 25.3918 14.1139V14.12ZM23.5883 13.2238L22.233 12.5532C22.1309 12.5066 22.0172 12.5079 21.9159 12.5568C21.8146 12.6056 21.7337 12.6982 21.6905 12.8148C21.6473 12.9314 21.6451 13.0629 21.6843 13.1814C21.7236 13.2999 21.8012 13.396 21.9008 13.4494L23.2561 14.12C23.3589 14.1709 23.475 14.1725 23.5788 14.1245C23.6826 14.0765 23.7657 13.9828 23.8098 13.864C23.8538 13.7451 23.8552 13.6109 23.8137 13.4909C23.7721 13.3708 23.6911 13.2748 23.5883 13.2238Z" fill="black"/>
</svg>
