<svg width="13" height="13" viewBox="0 0 13 13" fill="none" xmlns="http://www.w3.org/2000/svg">
<path d="M12.6945 5.68715H11.9236C11.5704 3.30883 9.69038 1.4288 7.31205 1.07558V0.304669C7.31205 0.136416 7.17564 0 7.00738 0H5.99182C5.82357 0 5.68715 0.136416 5.68715 0.304669V1.07558C3.30883 1.4288 1.4288 3.30883 1.07558 5.68715H0.304669C0.136416 5.68715 0 5.82357 0 5.99182V7.00738C0 7.17564 0.136416 7.31205 0.304669 7.31205H1.07558C1.4288 9.69038 3.30883 11.5704 5.68715 11.9236V12.6945C5.68715 12.8628 5.82357 12.9992 5.99182 12.9992H7.00738C7.17564 12.9992 7.31205 12.8628 7.31205 12.6945V11.9236C9.69038 11.5704 11.5704 9.69038 11.9236 7.31205H12.6945C12.8628 7.31205 12.9992 7.17564 12.9992 7.00738V5.99182C12.9992 5.82357 12.8628 5.68715 12.6945 5.68715ZM7.31205 10.2733V9.24162C7.31205 9.07337 7.17564 8.93695 7.00738 8.93695H5.99182C5.82357 8.93695 5.68715 9.07337 5.68715 9.24162V10.2733C4.21017 9.95841 3.04118 8.79079 2.72592 7.31205H3.75758C3.92584 7.31205 4.06225 7.17564 4.06225 7.00738V5.99182C4.06225 5.82357 3.92584 5.68715 3.75758 5.68715H2.72592C3.0408 4.21017 4.20842 3.04118 5.68715 2.72592V3.75758C5.68715 3.92584 5.82357 4.06225 5.99182 4.06225H7.00738C7.17564 4.06225 7.31205 3.92584 7.31205 3.75758V2.72592C8.78904 3.0408 9.95803 4.20842 10.2733 5.68715H9.24162C9.07337 5.68715 8.93695 5.82357 8.93695 5.99182V7.00738C8.93695 7.17564 9.07337 7.31205 9.24162 7.31205H10.2733C9.95841 8.78904 8.79079 9.95803 7.31205 10.2733ZM7.31205 6.4996C7.31205 6.9483 6.9483 7.31205 6.4996 7.31205C6.0509 7.31205 5.68715 6.9483 5.68715 6.4996C5.68715 6.0509 6.0509 5.68715 6.4996 5.68715C6.9483 5.68715 7.31205 6.0509 7.31205 6.4996Z" fill="#6C757D"/>
</svg>
