<svg width="27" height="31" viewBox="0 0 27 31" fill="none" xmlns="http://www.w3.org/2000/svg">
<path d="M26.8141 2.11129C26.8162 1.54518 26.6271 1.01357 26.282 0.614571C25.9369 0.215567 25.4765 -0.00240191 24.9879 1.9967e-05C24.4993 0.00244184 24.04 0.224043 23.6933 0.624258C23.5466 0.79379 23.2801 1.1601 23.1345 1.36293C23.0955 1.41326 23.0657 1.47217 23.0468 1.53613C23.028 1.60008 23.0205 1.66778 23.0247 1.73517C23.029 1.80256 23.0451 1.86825 23.0718 1.92832C23.0986 1.98839 23.1355 2.04161 23.1805 2.08479C23.2255 2.12796 23.2775 2.16022 23.3335 2.17961C23.3895 2.19901 23.4482 2.20516 23.5063 2.19768C23.5644 2.19021 23.6206 2.16927 23.6715 2.13612C23.7225 2.10296 23.7671 2.05828 23.8027 2.00473C24.0311 1.68686 24.2201 1.43559 24.3081 1.33447C24.4914 1.12256 24.7339 1.0057 24.9916 1.00449H24.9952C25.2503 1.00449 25.4886 1.11832 25.6677 1.32539C25.7566 1.4278 25.8269 1.54968 25.8746 1.6839C25.9222 1.81811 25.9463 1.96197 25.9452 2.10705C25.9448 2.25402 25.9194 2.39945 25.8703 2.53502C25.8212 2.6706 25.7495 2.79367 25.6593 2.89719C25.4954 3.0867 24.9319 3.60377 24.1248 4.25586C23.8827 3.7753 23.5358 3.3765 23.1188 3.09923C22.7018 2.82195 22.2293 2.67588 21.7482 2.67559H15.3872C14.9649 2.67433 14.5466 2.76989 14.1564 2.95676C13.7663 3.14362 13.4121 3.41806 13.1143 3.76422L0.398026 18.465C0.271465 18.6107 0.171129 18.784 0.102813 18.9748C0.0344968 19.1656 -0.00044538 19.3701 4.28538e-06 19.5766C4.28538e-06 19.9968 0.141407 20.3922 0.398549 20.6895L8.91778 30.538C9.0441 30.6843 9.19417 30.8002 9.35936 30.8792C9.52455 30.9581 9.70161 30.9986 9.88036 30.9982C10.2286 30.9982 10.5774 30.845 10.8429 30.538L23.5582 15.8385C23.8576 15.4942 24.095 15.0847 24.2566 14.6336C24.4183 14.1826 24.5009 13.699 24.4998 13.2107V5.85672C24.4998 5.63936 24.4804 5.42744 24.4443 5.22279C25.3639 4.49139 26.0385 3.87986 26.2736 3.6074C26.4444 3.41136 26.58 3.17831 26.6727 2.92158C26.7655 2.66486 26.8135 2.3895 26.8141 2.11129ZM23.631 13.2107C23.6318 13.567 23.5715 13.9199 23.4535 14.2491C23.3356 14.5782 23.1623 14.877 22.9438 15.1283L10.2281 29.829C10.1357 29.9356 10.0106 29.9954 9.8801 29.9954C9.74962 29.9954 9.62447 29.9356 9.53209 29.829L1.01286 19.9799C0.920167 19.8721 0.868843 19.7292 0.868843 19.5772C0.868843 19.4253 0.920167 19.2824 1.01286 19.1746L13.7286 4.47443C13.9459 4.22201 14.2043 4.02188 14.4889 3.88564C14.7735 3.74939 15.0786 3.67972 15.3867 3.68066H21.7477C22.0871 3.68095 22.4201 3.7872 22.7116 3.98819C23.0031 4.18919 23.2422 4.47747 23.4037 4.82258C22.8482 5.24813 22.2823 5.65537 21.7068 6.04381C21.5405 5.8332 21.339 5.66372 21.1145 5.54557C20.89 5.42743 20.6471 5.36309 20.4005 5.35641C20.1539 5.34973 19.9087 5.40087 19.6797 5.50673C19.4506 5.61259 19.2425 5.77099 19.0678 5.97236C18.7262 6.36827 18.5343 6.90469 18.5343 7.46394C18.5343 8.02318 18.7262 8.5596 19.0678 8.95551C19.2371 9.1516 19.4381 9.3071 19.6595 9.41308C19.8809 9.51906 20.1182 9.57344 20.3578 9.57309C20.8249 9.57309 21.2921 9.36723 21.6477 8.95551C21.873 8.69462 22.0353 8.37001 22.1184 8.01403C22.2015 7.65805 22.2024 7.28311 22.1211 6.92658C22.6315 6.58253 23.1346 6.22419 23.6299 5.85188V13.2107H23.631ZM19.9702 7.68887C20.022 7.80792 20.1125 7.89833 20.2219 7.94022C20.3313 7.98212 20.4506 7.97207 20.5536 7.91229C20.8081 7.76395 21.0616 7.60955 21.313 7.45213C21.3146 7.59919 21.2908 7.74513 21.2428 7.88136C21.1949 8.01758 21.1238 8.14133 21.0339 8.24529C20.8545 8.45205 20.6116 8.56815 20.3583 8.56815C20.105 8.56815 19.862 8.45205 19.6827 8.24529C19.5037 8.03791 19.4032 7.75691 19.4032 7.46394C19.4032 7.17097 19.5037 6.88996 19.6827 6.68258C19.8419 6.49789 20.0527 6.38449 20.2775 6.36254C20.5022 6.34059 20.7265 6.41151 20.9103 6.5627C20.6641 6.7177 20.4148 6.86846 20.1629 7.01498C20.1119 7.0446 20.0665 7.08556 20.0292 7.1355C19.9919 7.18544 19.9635 7.24339 19.9456 7.30603C19.9277 7.36868 19.9207 7.43479 19.9249 7.50058C19.9291 7.56638 19.9445 7.63056 19.9702 7.68947V7.68887Z" fill="black"/>
<path d="M11.9951 11.0222C11.8798 11.0222 11.7692 11.0752 11.6877 11.1694C11.6062 11.2637 11.5604 11.3915 11.5604 11.5248V22.1314C11.5604 22.2646 11.6062 22.3925 11.6877 22.4867C11.7692 22.581 11.8798 22.6339 11.9951 22.6339C12.1103 22.6339 12.2209 22.581 12.3024 22.4867C12.3839 22.3925 12.4297 22.2646 12.4297 22.1314V11.5248C12.4297 11.3915 12.3839 11.2637 12.3024 11.1694C12.2209 11.0752 12.1103 11.0222 11.9951 11.0222ZM10.0086 15.3362C9.66623 14.9411 9.20222 14.7191 8.71845 14.7191C8.23467 14.7191 7.77066 14.9411 7.42828 15.3362C7.08663 15.7321 6.89476 16.2685 6.89476 16.8278C6.89476 17.387 7.08663 17.9234 7.42828 18.3193C7.59759 18.5154 7.79876 18.6709 8.02022 18.7767C8.24168 18.8826 8.47906 18.9369 8.71871 18.9363C9.18586 18.9363 9.65301 18.7304 10.0086 18.3193C10.3532 17.9209 10.5428 17.3911 10.5428 16.8281C10.5428 16.265 10.3532 15.7346 10.0086 15.3362ZM9.3943 17.6091C9.21494 17.8159 8.97199 17.932 8.71871 17.932C8.46543 17.932 8.22248 17.8159 8.04312 17.6091C7.86428 17.4018 7.76386 17.1209 7.76386 16.8281C7.76386 16.5352 7.86428 16.2544 8.04312 16.047C8.22904 15.8309 8.47413 15.7237 8.71871 15.7237C8.84427 15.7233 8.96867 15.7516 9.08475 15.8069C9.20083 15.8623 9.30631 15.9436 9.39513 16.0462C9.48394 16.1488 9.55434 16.2707 9.60228 16.4049C9.65022 16.5391 9.67476 16.6829 9.67448 16.8281C9.67448 17.1229 9.57498 17.4002 9.3943 17.6091ZM16.5618 15.3362C16.2194 14.9411 15.7554 14.7191 15.2717 14.7191C14.7879 14.7191 14.3239 14.9411 13.9815 15.3362C13.6398 15.7321 13.448 16.2685 13.448 16.8278C13.448 17.387 13.6398 17.9234 13.9815 18.3193C14.1508 18.5154 14.352 18.6708 14.5735 18.7767C14.7949 18.8826 15.0323 18.9368 15.2719 18.9363C15.7391 18.9363 16.2062 18.7304 16.5618 18.3193C16.9035 17.9234 17.0953 17.387 17.0953 16.8278C17.0953 16.2685 16.9035 15.7321 16.5618 15.3362ZM15.9475 17.6091C15.7682 17.8159 15.5252 17.932 15.2719 17.932C15.0186 17.932 14.7757 17.8159 14.5963 17.6091C14.4175 17.4018 14.3171 17.1209 14.3171 16.8281C14.3171 16.5352 14.4175 16.2544 14.5963 16.047C14.7822 15.8309 15.0268 15.7237 15.2719 15.7237C15.517 15.7237 15.7611 15.8309 15.9475 16.0464C16.1265 16.2538 16.227 16.5348 16.227 16.8278C16.227 17.1207 16.1265 17.4017 15.9475 17.6091Z" fill="black"/>
</svg>
