<svg width="83" height="85" viewBox="0 0 83 85" fill="none" xmlns="http://www.w3.org/2000/svg">
<path d="M47.6874 43.4959C51.9032 41.3377 54.8136 36.9341 54.8136 31.8111C54.8136 24.5735 49.057 18.6875 41.9308 18.6875C34.826 18.6875 29.048 24.5517 29.048 31.8111C29.048 36.9341 31.9584 41.3377 36.1742 43.4959C29.262 45.2181 23.5482 50.0141 20.4238 56.3361C25.7738 62.2221 33.4136 65.9281 41.9094 65.9281C50.4052 65.9281 58.045 62.2221 63.395 56.3361C60.3134 50.0141 54.5996 45.2181 47.6874 43.4959Z" fill="#233EC9"/>
<path d="M41.5008 84.1835C18.9238 84.1835 0.583984 65.5009 0.583984 42.5019C0.583984 19.5029 18.9238 0.820312 41.5008 0.820312C64.0778 0.820312 82.4176 19.5247 82.4176 42.5019C82.4176 65.5009 64.0778 84.1835 41.5008 84.1835ZM41.5008 5.70351C21.5988 5.70351 5.37758 22.2279 5.37758 42.5019C5.37758 62.7759 21.5988 79.3003 41.5008 79.3003C61.4028 79.3003 77.624 62.7759 77.624 42.5019C77.624 22.2279 61.4028 5.70351 41.5008 5.70351Z" fill="#233EC9"/>
</svg>
