<svg width="27" height="28" viewBox="0 0 27 28" fill="none" xmlns="http://www.w3.org/2000/svg">
<path d="M20.6246 9.14285L19.3495 7.66805C19.2686 7.57403 19.1723 7.49948 19.0663 7.44873C18.9603 7.39798 18.8467 7.37202 18.732 7.37236C18.4983 7.37236 18.279 7.47722 18.1139 7.66805L18.0939 7.69122L14.2279 3.2211L14.2479 3.19793C14.413 3.00771 14.5037 2.75348 14.5037 2.484C14.5037 2.21453 14.413 1.96029 14.2479 1.76947L12.9723 0.295278C12.8083 0.106187 12.5861 0 12.3545 0C12.1228 0 11.9007 0.106187 11.7367 0.295278L8.54833 3.98136C8.38477 4.17096 8.29292 4.42781 8.29292 4.69559C8.29292 4.96337 8.38477 5.22022 8.54833 5.40982L9.82346 6.88462C9.98746 7.07371 10.2096 7.1799 10.4412 7.1799C10.6729 7.1799 10.895 7.07371 11.059 6.88462L11.0791 6.86145L11.7567 7.64488L11.0991 8.40514C10.9883 8.53241 10.9092 8.69191 10.8702 8.86682C10.8312 9.04173 10.8338 9.22555 10.8776 9.39891L0.387607 21.5253C0.264286 21.6672 0.16653 21.8359 0.0999987 22.0218C0.0334671 22.2077 -0.000519508 22.4069 6.00226e-06 22.6081C6.00226e-06 23.0172 0.137644 23.4019 0.388135 23.6915C0.511066 23.8337 0.657086 23.9464 0.81781 24.0232C0.978534 24.1 1.1508 24.1394 1.32471 24.139C1.66379 24.139 2.00288 23.9896 2.26128 23.6915L12.7502 11.5651C12.8283 11.5901 12.909 11.6041 12.9923 11.6041C13.2254 11.6041 13.4448 11.4992 13.6098 11.3084L14.2674 10.5481L14.9451 11.3316L14.9256 11.3541C14.8441 11.4477 14.7795 11.559 14.7355 11.6817C14.6915 11.8044 14.669 11.9359 14.6693 12.0687C14.6693 12.3381 14.76 12.5918 14.925 12.7826L16.2007 14.2574C16.3657 14.4482 16.5851 14.5531 16.8187 14.5531C17.0523 14.5531 17.2712 14.4482 17.4363 14.2574L20.6251 10.5707C20.7902 10.3805 20.8809 10.1269 20.8809 9.85677C20.8809 9.58669 20.7902 9.33306 20.6251 9.14285H20.6246ZM1.66379 23.0001C1.5966 23.077 1.51127 23.1292 1.41852 23.1502C1.32576 23.1712 1.22971 23.16 1.1424 23.1182C1.0551 23.0763 0.980433 23.0055 0.927774 22.9148C0.875114 22.8241 0.846806 22.7174 0.8464 22.6081C0.8464 22.4605 0.895971 22.3215 0.986148 22.2167L11.3976 10.1793L12.0752 10.9627L1.66326 23.0001H1.66379ZM13.0123 10.6176C13.0108 10.6195 13.0044 10.6268 12.9928 10.6268C12.9812 10.6268 12.9749 10.6195 12.9728 10.617L11.6966 9.14285C11.6945 9.14102 11.6887 9.1337 11.6887 9.12029C11.6887 9.10688 11.6945 9.09956 11.6966 9.09712L12.3542 8.33686L13.6699 9.85738L13.0118 10.6176H13.0123ZM20.0277 9.87994L16.8388 13.566C16.8367 13.5685 16.8309 13.5758 16.8193 13.5758C16.8077 13.5758 16.8013 13.5685 16.7992 13.566L15.5236 12.0918C15.5215 12.0894 15.5157 12.0821 15.5157 12.0687C15.5157 12.0553 15.5215 12.0479 15.5236 12.0455L15.8426 11.6766C15.9217 11.585 15.9662 11.4608 15.9662 11.3313C15.9662 11.2018 15.9217 11.0776 15.8426 10.9859L11.6776 6.17008L12.6537 5.04158C12.6953 4.99683 12.7286 4.94287 12.7518 4.88291C12.7749 4.82294 12.7873 4.75821 12.7884 4.69256C12.7894 4.62692 12.779 4.56171 12.7577 4.50082C12.7365 4.43993 12.7048 4.38462 12.6647 4.33817C12.6245 4.29172 12.5767 4.2551 12.5241 4.23048C12.4714 4.20586 12.415 4.19375 12.3583 4.19488C12.3015 4.196 12.2455 4.21033 12.1936 4.23702C12.1417 4.26371 12.095 4.3022 12.0562 4.35021L10.4615 6.19325C10.451 6.20605 10.4331 6.20605 10.422 6.19325L9.14634 4.71906C9.14106 4.7129 9.1381 4.70457 9.1381 4.69589C9.1381 4.68722 9.14106 4.67889 9.14634 4.67273L12.3352 0.986647C12.3458 0.973843 12.3637 0.973843 12.3748 0.986647L13.6504 2.46084C13.661 2.47303 13.661 2.49437 13.6504 2.50717L13.333 2.87358L13.3261 2.88212C13.2493 2.97432 13.2068 3.09768 13.2078 3.22569C13.2088 3.35371 13.2531 3.47618 13.3314 3.56678L17.4969 8.38259L16.5203 9.51109C16.4809 9.55641 16.4496 9.61028 16.4283 9.6696C16.407 9.72892 16.396 9.79253 16.396 9.85677C16.396 9.92102 16.407 9.98463 16.4283 10.0439C16.4496 10.1033 16.4809 10.1571 16.5203 10.2025C16.5995 10.2939 16.707 10.3453 16.819 10.3453C16.931 10.3453 17.0385 10.2939 17.1177 10.2025L18.7124 8.35942C18.7146 8.35698 18.7204 8.34966 18.7325 8.34966C18.7446 8.34966 18.7504 8.35698 18.752 8.35942L20.0277 9.83361C20.0298 9.83604 20.0361 9.84336 20.0361 9.85677C20.0361 9.87019 20.0298 9.8775 20.0277 9.87994ZM26.9876 26.9575L26.7076 25.6625C26.6363 25.331 26.471 25.0365 26.238 24.8262C26.0051 24.6159 25.718 24.5019 25.4224 24.5023H25.1967V23.4269C25.1967 22.8702 24.8044 22.4166 24.3229 22.4166H18.009C17.7773 22.417 17.5552 22.5235 17.3914 22.7129C17.2276 22.9023 17.1354 23.159 17.1351 23.4269V24.5023H16.9094C16.6139 24.5019 16.3268 24.6159 16.0938 24.8262C15.8609 25.0365 15.6956 25.331 15.6243 25.6625L15.3443 26.9581C15.3286 27.0302 15.3274 27.1054 15.3407 27.1781C15.354 27.2508 15.3815 27.319 15.4211 27.3776C15.4606 27.4362 15.5113 27.4835 15.569 27.516C15.6268 27.5486 15.6903 27.5654 15.7545 27.5653H26.5768C26.641 27.5653 26.7044 27.5484 26.7622 27.5158C26.8199 27.4832 26.8705 27.4359 26.91 27.3774C26.9495 27.3188 26.977 27.2507 26.9904 27.178C27.0037 27.1054 27.0026 27.0302 26.9871 26.9581L26.9876 26.9575ZM16.2961 26.5874L16.4454 25.8991C16.4711 25.7793 16.5308 25.673 16.6149 25.597C16.699 25.521 16.8027 25.4797 16.9094 25.4796H18.4604C18.5699 25.4752 18.6736 25.4217 18.7497 25.3306C18.8258 25.2394 18.8684 25.1177 18.8684 24.991C18.8684 24.8643 18.8258 24.7425 18.7497 24.6514C18.6736 24.5602 18.5699 24.5068 18.4604 24.5023H17.9815V23.4269C17.9815 23.4086 17.9942 23.3946 18.0095 23.3946H24.3229C24.3387 23.3946 24.3509 23.4086 24.3509 23.4269V24.5023H20.2639C20.1544 24.5068 20.0506 24.5602 19.9745 24.6514C19.8984 24.7425 19.8559 24.8643 19.8559 24.991C19.8559 25.1177 19.8984 25.2394 19.9745 25.3306C20.0506 25.4217 20.1544 25.4752 20.2639 25.4796H25.4224C25.6423 25.4796 25.8338 25.6522 25.887 25.8991L26.0357 26.588H16.2961V26.5874ZM21.1662 17.7246C21.054 17.7246 20.9465 17.7761 20.8671 17.8678C20.7878 17.9595 20.7433 18.0839 20.7433 18.2136V20.8205C20.7433 20.9502 20.7878 21.0746 20.8671 21.1663C20.9465 21.258 21.054 21.3095 21.1662 21.3095C21.2784 21.3095 21.3859 21.258 21.4653 21.1663C21.5446 21.0746 21.5891 20.9502 21.5891 20.8205V18.2136C21.5891 18.0839 21.5446 17.9595 21.4653 17.8678C21.3859 17.7761 21.2784 17.7246 21.1662 17.7246ZM23.6099 19.3402C23.5602 19.3115 23.5062 19.2944 23.4507 19.2899C23.3953 19.2853 23.3397 19.2935 23.287 19.3138C23.2343 19.3341 23.1856 19.3662 23.1436 19.4083C23.1017 19.4504 23.0673 19.5017 23.0425 19.5591L22.5916 20.6016C22.5668 20.6591 22.552 20.7216 22.5481 20.7857C22.5442 20.8497 22.5512 20.9141 22.5688 20.975C22.5863 21.0359 22.6141 21.0922 22.6505 21.1407C22.6869 21.1892 22.7313 21.2289 22.7809 21.2577C22.8306 21.2864 22.8847 21.3035 22.9401 21.308C22.9955 21.3125 23.0512 21.3044 23.1039 21.2841C23.1566 21.2638 23.2053 21.2316 23.2472 21.1895C23.2892 21.1475 23.3235 21.0962 23.3484 21.0388L23.7992 19.9962C23.8241 19.9388 23.8389 19.8763 23.8428 19.8122C23.8467 19.7481 23.8397 19.6838 23.8221 19.6229C23.8045 19.562 23.7768 19.5057 23.7403 19.4572C23.7039 19.4087 23.6596 19.3689 23.6099 19.3402ZM19.7402 20.6016L19.2894 19.5591C19.2645 19.5017 19.2302 19.4505 19.1882 19.4085C19.1463 19.3664 19.0976 19.3343 19.0449 19.314C18.9923 19.2937 18.9367 19.2856 18.8813 19.2902C18.8259 19.2947 18.7719 19.3118 18.7222 19.3405C18.6725 19.3692 18.6283 19.409 18.5919 19.4575C18.5555 19.5059 18.5278 19.5622 18.5102 19.6231C18.4927 19.684 18.4856 19.7483 18.4896 19.8123C18.4935 19.8763 18.5083 19.9388 18.5331 19.9962L18.9846 21.0388C19.0078 21.0991 19.0414 21.1534 19.0833 21.1984C19.1252 21.2433 19.1745 21.278 19.2283 21.3002C19.2821 21.3225 19.3392 21.332 19.3963 21.328C19.4533 21.3241 19.5091 21.3068 19.5602 21.2772C19.6113 21.2477 19.6567 21.2064 19.6936 21.156C19.7306 21.1056 19.7583 21.0471 19.7751 20.9839C19.7919 20.9208 19.7975 20.8544 19.7915 20.7887C19.7855 20.723 19.7681 20.6593 19.7402 20.6016Z" fill="black"/>
</svg>
