<svg width="60" height="60" viewBox="0 0 60 60" fill="none" xmlns="http://www.w3.org/2000/svg">
<g clip-path="url(#clip0_0_48)">
<path d="M51.216 8.78399C45.5514 3.13248 38.0074 0 30.0065 0C22.0057 0 14.4486 3.13248 8.78399 8.78399C3.11943 14.4355 0 21.9926 0 30.0196C0 38.0466 3.13248 45.5514 8.78399 51.2291C14.4486 56.8936 21.9926 60.013 30.0065 60.013C38.0204 60.013 45.5384 56.8936 51.216 51.2291C54.0098 48.4502 56.2247 45.1448 57.7325 41.5042C59.2403 37.8636 60.011 33.96 60 30.0196C60 22.0057 56.8675 14.4616 51.216 8.79704V8.78399ZM41.7142 40.3306C44.2332 37.4723 45.6167 33.8438 45.6167 30.0065C45.6167 26.1562 44.2332 22.5277 41.7011 19.6693L50.5112 10.8723C55.3796 16.0931 58.0422 22.841 58.0422 30.0065C58.0422 37.1721 55.3796 43.9199 50.5112 49.1277L41.7142 40.3306ZM20.3481 39.665C18.064 37.3809 16.6935 34.4311 16.3933 31.2465C17.3949 31.6923 18.4983 31.8597 19.587 31.7311C20.6758 31.6024 21.7098 31.1825 22.5799 30.5156C23.6412 31.3422 24.948 31.791 26.2932 31.791C27.6385 31.791 28.9452 31.3422 30.0065 30.5156C31.0667 31.339 32.3709 31.7859 33.7133 31.7859C35.0557 31.7859 36.3599 31.339 37.4201 30.5156C38.2877 31.1877 39.322 31.6109 40.4119 31.7396C41.5019 31.8684 42.6063 31.6979 43.6067 31.2465C43.3196 34.4311 41.936 37.3809 39.665 39.665C38.3989 40.9359 36.8934 41.9433 35.2356 42.6288C33.5777 43.3143 31.8005 43.6645 30.0065 43.6589C28.2126 43.6645 26.4353 43.3143 24.7775 42.6288C23.1197 41.9433 21.6142 40.9359 20.3481 39.665ZM20.3481 20.3481C21.6131 19.0748 23.1181 18.065 24.776 17.3772C26.4338 16.6894 28.2116 16.3373 30.0065 16.3411C31.8014 16.3373 33.5792 16.6894 35.2371 17.3772C36.895 18.065 38.4 19.0748 39.665 20.3481C42.0013 22.6844 43.3848 25.7124 43.6198 28.9754C42.8114 29.5887 41.8054 29.8825 40.7941 29.8006C39.7827 29.7187 38.8371 29.267 38.1379 28.5317C38.0464 28.4349 37.9361 28.3578 37.8138 28.3051C37.6915 28.2524 37.5598 28.2252 37.4266 28.2252C37.2934 28.2252 37.1616 28.2524 37.0393 28.3051C36.917 28.3578 36.8067 28.4349 36.7152 28.5317C36.3307 28.9426 35.8658 29.2703 35.3494 29.4943C34.833 29.7182 34.2761 29.8338 33.7133 29.8338C33.1504 29.8338 32.5936 29.7182 32.0772 29.4943C31.5608 29.2703 31.0959 28.9426 30.7113 28.5317C30.6198 28.4349 30.5096 28.3578 30.3873 28.3051C30.2649 28.2524 30.1332 28.2252 30 28.2252C29.8668 28.2252 29.7351 28.2524 29.6127 28.3051C29.4904 28.3578 29.3802 28.4349 29.2887 28.5317C28.5055 29.3539 27.4353 29.8107 26.2867 29.8107C25.1512 29.8107 24.0809 29.3539 23.2847 28.5317C23.1933 28.4349 23.083 28.3578 22.9607 28.3051C22.8384 28.2524 22.7066 28.2252 22.5734 28.2252C22.4402 28.2252 22.3085 28.2524 22.1862 28.3051C22.0638 28.3578 21.9536 28.4349 21.8621 28.5317C21.1645 29.2695 20.2184 29.7231 19.2063 29.8051C18.1941 29.887 17.1875 29.5915 16.3802 28.9754C16.6152 25.7124 17.9987 22.6844 20.3481 20.3481ZM49.1277 9.4888L40.3306 18.2858C37.4844 15.7628 33.8101 14.3739 30.0065 14.3833C26.1562 14.3833 22.5277 15.7668 19.6693 18.2989L10.8723 9.47574C16.0931 4.6204 22.841 1.9578 30.0196 1.9578C37.1721 1.9578 43.933 4.63346 49.1407 9.4888H49.1277ZM1.9578 30.0196C1.9578 22.841 4.63346 16.0931 9.4888 10.8854L18.2858 19.6824C15.7668 22.5408 14.3833 26.1692 14.3833 30.0196C14.3833 33.8699 15.7668 37.4853 18.2989 40.3306L9.4888 49.1407C4.62867 43.9574 1.93438 37.1119 1.9578 30.0065V30.0196ZM10.8723 50.5112L19.6693 41.7272C22.5277 44.2462 26.1562 45.6298 30.0065 45.6298C33.8438 45.6298 37.4723 44.2462 40.3176 41.7142L49.1277 50.5243C43.9477 55.3813 37.1074 58.0753 30.0065 58.0552C22.8993 58.0751 16.0536 55.3761 10.8723 50.5112Z" fill="black"/>
<path d="M30.7367 7.63412C35.083 7.76464 39.2466 9.14815 42.7837 11.628C42.8897 11.7025 43.0094 11.7552 43.136 11.783C43.2625 11.8109 43.3933 11.8134 43.5207 11.7903C43.6482 11.7672 43.7698 11.7191 43.8786 11.6487C43.9873 11.5782 44.081 11.4869 44.1542 11.38C44.4674 10.9363 44.3499 10.3359 43.9062 10.0226C40.0518 7.33413 35.499 5.82409 30.802 5.67632C30.6734 5.67204 30.5453 5.69312 30.4249 5.73835C30.3045 5.78359 30.1942 5.8521 30.1002 5.93997C30.0063 6.02783 29.9306 6.13334 29.8774 6.25047C29.8243 6.3676 29.7947 6.49404 29.7904 6.62259C29.7862 6.75115 29.8072 6.87928 29.8525 6.99969C29.8977 7.12009 29.9662 7.23041 30.0541 7.32434C30.142 7.41827 30.2475 7.49397 30.3646 7.54712C30.4817 7.60028 30.6082 7.62984 30.7367 7.63412ZM51.5546 18.6631C51.1947 17.9835 50.8027 17.3215 50.38 16.6792C50.3097 16.5712 50.2188 16.4781 50.1126 16.4052C50.0063 16.3323 49.8868 16.2811 49.7607 16.2545C49.6347 16.2278 49.5046 16.2262 49.378 16.2498C49.2513 16.2734 49.1305 16.3217 49.0226 16.392C48.9146 16.4623 48.8215 16.5531 48.7486 16.6594C48.6757 16.7656 48.6245 16.8852 48.5979 17.0112C48.5712 17.1373 48.5696 17.2674 48.5932 17.394C48.6168 17.5207 48.6651 17.6414 48.7354 17.7494C49.127 18.3368 49.4924 18.9502 49.8187 19.5767C49.8787 19.6907 49.9606 19.7917 50.0596 19.8741C50.1587 19.9564 50.2729 20.0185 50.396 20.0566C50.519 20.0948 50.6483 20.1084 50.7766 20.0966C50.9048 20.0848 51.0295 20.0478 51.1435 19.9878C51.2575 19.9278 51.3585 19.846 51.4409 19.7469C51.5232 19.6479 51.5853 19.5336 51.6234 19.4106C51.6616 19.2876 51.6752 19.1582 51.6634 19.03C51.6516 18.9017 51.6146 18.777 51.5546 18.6631ZM53.3819 23.2313C53.3459 23.1078 53.286 22.9927 53.2055 22.8925C53.125 22.7922 53.0256 22.7088 52.9129 22.647C52.8001 22.5852 52.6764 22.5462 52.5486 22.5322C52.4208 22.5183 52.2915 22.5296 52.1681 22.5656C52.0447 22.6016 51.9296 22.6615 51.8293 22.742C51.7291 22.8225 51.6457 22.9219 51.5839 23.0347C51.5221 23.1474 51.483 23.2712 51.4691 23.3989C51.4551 23.5267 51.4664 23.656 51.5024 23.7794C52.5466 27.4079 52.6641 31.2843 51.8287 34.965C51.7908 35.0934 51.7796 35.2283 51.7958 35.3612C51.8121 35.4941 51.8554 35.6223 51.9232 35.7378C51.991 35.8533 52.0817 35.9536 52.1898 36.0326C52.2979 36.1117 52.4211 36.1677 52.5517 36.1972C52.6823 36.2267 52.8176 36.2291 52.9492 36.2043C53.0808 36.1794 53.2058 36.1278 53.3167 36.0527C53.4275 35.9776 53.5218 35.8805 53.5936 35.7675C53.6655 35.6545 53.7133 35.528 53.7343 35.3957C54.648 31.3887 54.5174 27.186 53.395 23.2443L53.3819 23.2313ZM33.7126 38.1627C35.3963 38.1627 36.9625 37.484 38.1241 36.2702C38.2178 36.1786 38.2921 36.0691 38.3426 35.9482C38.3932 35.8274 38.419 35.6976 38.4185 35.5666C38.418 35.4356 38.3911 35.306 38.3396 35.1856C38.2881 35.0651 38.2129 34.9562 38.1186 34.8653C38.0242 34.7745 37.9126 34.7035 37.7903 34.6565C37.6679 34.6096 37.5375 34.5877 37.4065 34.5921C37.2756 34.5965 37.1469 34.6272 37.028 34.6823C36.9091 34.7374 36.8025 34.8157 36.7145 34.9128C36.3299 35.3238 35.8651 35.6514 35.3487 35.8754C34.8323 36.0994 34.2754 36.2149 33.7126 36.2149C33.1497 36.2149 32.5928 36.0994 32.0765 35.8754C31.5601 35.6514 31.0952 35.3238 30.7106 34.9128C30.6191 34.816 30.5088 34.7389 30.3865 34.6862C30.2642 34.6336 30.1325 34.6064 29.9993 34.6064C29.8661 34.6064 29.7343 34.6336 29.612 34.6862C29.4897 34.7389 29.3794 34.816 29.2879 34.9128C28.9034 35.3238 28.4385 35.6514 27.9221 35.8754C27.4057 36.0994 26.8488 36.2149 26.286 36.2149C25.7231 36.2149 25.1663 36.0994 24.6499 35.8754C24.1335 35.6514 23.6686 35.3238 23.284 34.9128C23.196 34.8157 23.0894 34.7374 22.9705 34.6823C22.8517 34.6272 22.723 34.5965 22.592 34.5921C22.4611 34.5877 22.3306 34.6096 22.2083 34.6565C22.086 34.7035 21.9743 34.7745 21.88 34.8653C21.7856 34.9562 21.7104 35.0651 21.6589 35.1856C21.6074 35.306 21.5806 35.4356 21.5801 35.5666C21.5796 35.6976 21.6054 35.8274 21.6559 35.9482C21.7065 36.0691 21.7808 36.1786 21.8744 36.2702C22.9067 37.3712 24.3137 38.046 25.8185 38.1619C27.3233 38.2779 28.817 37.8265 30.0058 36.8967C31.05 37.719 32.3552 38.1627 33.7126 38.1627Z" fill="black"/>
</g>
<defs>
<clipPath id="clip0_0_48">
<rect width="60" height="60" fill="white"/>
</clipPath>
</defs>
</svg>
